<svg xmlns="http://www.w3.org/2000/svg" fill="#000000" viewBox="0 0 24 24" width="64" height="64" stroke-linecap="round" stroke-linejoin="round"><path fill-rule="evenodd" clip-rule="evenodd" d="M6.092 16.253a.62.62 0 0 1 .458-.203l14.14.012a.312.312 0 0 1 .306.36.31.31 0 0 1-.077.16l-3.011 3.315a.62.62 0 0 1-.459.203L3.31 20.09a.311.311 0 0 1-.229-.52zm14.827-2.76a.31.31 0 0 1-.23.52l-14.138.012a.62.62 0 0 1-.459-.203l-3.01-3.317a.31.31 0 0 1 .228-.52l14.14-.012a.62.62 0 0 1 .458.203zM6.092 4.103A.62.62 0 0 1 6.55 3.9l14.14.011a.311.311 0 0 1 .229.52l-3.011 3.316a.62.62 0 0 1-.459.203L3.31 7.938a.31.31 0 0 1-.229-.52z"/></svg>